<?xml version="1.0" standalone="no"?><svg xmlns="http://www.w3.org/2000/svg" viewBox="0 0 1440 320"><path fill="#0099ff" fill-opacity="1" d="M0,96L20,112C40,128,80,160,120,176C160,192,200,192,240,213.3C280,235,320,277,360,245.3C400,213,440,107,480,96C520,85,560,171,600,170.7C640,171,680,85,720,48C760,11,800,21,840,64C880,107,920,181,960,208C1000,235,1040,213,1080,192C1120,171,1160,149,1200,170.7C1240,192,1280,256,1320,240C1360,224,1400,128,1420,80L1440,32L1440,320L1420,320C1400,320,1360,320,1320,320C1280,320,1240,320,1200,320C1160,320,1120,320,1080,320C1040,320,1000,320,960,320C920,320,880,320,840,320C800,320,760,320,720,320C680,320,640,320,600,320C560,320,520,320,480,320C440,320,400,320,360,320C320,320,280,320,240,320C200,320,160,320,120,320C80,320,40,320,20,320L0,320Z"></path></svg>