<?xml version="1.0" standalone="no"?><svg xmlns="http://www.w3.org/2000/svg" viewBox="0 0 1440 320"><path fill="#0099ff" fill-opacity="1" d="M0,128L17.1,149.3C34.3,171,69,213,103,213.3C137.1,213,171,171,206,154.7C240,139,274,149,309,154.7C342.9,160,377,160,411,186.7C445.7,213,480,267,514,250.7C548.6,235,583,149,617,112C651.4,75,686,85,720,122.7C754.3,160,789,224,823,234.7C857.1,245,891,203,926,186.7C960,171,994,181,1029,208C1062.9,235,1097,277,1131,282.7C1165.7,288,1200,256,1234,229.3C1268.6,203,1303,181,1337,176C1371.4,171,1406,181,1423,186.7L1440,192L1440,0L1422.9,0C1405.7,0,1371,0,1337,0C1302.9,0,1269,0,1234,0C1200,0,1166,0,1131,0C1097.1,0,1063,0,1029,0C994.3,0,960,0,926,0C891.4,0,857,0,823,0C788.6,0,754,0,720,0C685.7,0,651,0,617,0C582.9,0,549,0,514,0C480,0,446,0,411,0C377.1,0,343,0,309,0C274.3,0,240,0,206,0C171.4,0,137,0,103,0C68.6,0,34,0,17,0L0,0Z"></path></svg>